<svg width="1799" height="1799" viewBox="0 0 1799 1799" fill="none" xmlns="http://www.w3.org/2000/svg">
<g clip-path="url(#clip0_98_10)">
<rect width="1799" height="1799" fill="#847E72"/>
<path d="M111.189 1817.08C111.249 1821.33 112.145 1825.53 113.827 1829.44C115.509 1833.34 117.944 1836.88 120.992 1839.84C124.04 1842.8 127.642 1845.14 131.593 1846.71C135.543 1848.28 139.764 1849.06 144.015 1849H1654.88C1659.13 1849.06 1663.36 1848.29 1667.31 1846.72C1671.27 1845.15 1674.88 1842.82 1677.93 1839.85C1680.98 1836.89 1683.42 1833.35 1685.1 1829.45C1686.79 1825.54 1687.69 1821.34 1687.74 1817.08V1778.99C1688.49 1767.49 1690.03 1710.22 1652.26 1646.85C1628.44 1606.88 1593.87 1572.4 1549.51 1544.26C1495.85 1510.23 1427.59 1485.62 1345 1470.81C1303.08 1464.91 1261.5 1456.82 1220.42 1446.57C1111.2 1418.68 1101.65 1393.99 1101.57 1393.74C1100.94 1391.3 1100.02 1388.95 1098.83 1386.73C1097.92 1382.16 1095.72 1364.82 1099.95 1318.38C1110.66 1200.39 1173.94 1130.67 1224.78 1074.65C1240.8 1057.01 1255.95 1040.29 1267.61 1023.93C1317.95 953.384 1322.59 873.082 1322.8 868.102C1322.99 859.278 1321.77 850.48 1319.19 842.04C1314.21 826.685 1304.96 817.14 1298.15 810.085C1296.54 808.47 1294.98 806.809 1293.46 805.105C1292.96 804.524 1291.63 802.947 1292.84 795.02C1296.91 769.485 1299.72 743.766 1301.26 717.955C1303.59 676.372 1305.37 614.205 1294.62 553.656C1293.04 542.091 1290.66 530.651 1287.48 519.419C1276.16 477.753 1257.98 442.146 1232.71 412.764C1228.35 407.991 1122.61 296.563 815.639 273.738C773.185 270.584 731.229 272.286 689.896 274.402C677.672 274.674 665.507 276.176 653.584 278.884C621.879 287.06 613.413 307.146 611.213 318.392C607.52 337.067 613.994 351.509 618.268 361.137C618.891 362.507 619.679 364.208 618.31 368.69C611.214 379.729 599.967 389.689 588.555 399.11C585.235 401.89 508.295 468.291 504.062 554.984C492.65 620.928 493.48 723.64 506.967 794.647C507.797 798.589 508.918 804.399 507.05 808.342C492.526 821.331 476.092 836.064 476.133 869.679C476.299 873.082 480.989 953.343 531.327 1023.93C542.947 1040.29 558.094 1056.97 574.072 1074.61L574.155 1074.65C624.991 1130.67 688.278 1200.39 698.984 1318.34C703.176 1364.82 700.976 1382.12 700.105 1386.73C698.9 1388.95 697.967 1391.3 697.324 1393.74C697.283 1393.99 687.78 1418.6 579.052 1446.45C516.305 1462.51 454.554 1470.72 452.686 1470.93C372.427 1484.5 304.576 1508.53 251 1542.35C206.803 1570.28 172.152 1604.89 148.082 1645.15C109.571 1709.47 110.608 1768.07 111.148 1778.78L111.189 1817.08Z" fill="black" stroke="black" stroke-width="66.6667" stroke-linejoin="round"/>
</g>
<defs>
<clipPath id="clip0_98_10">
<rect width="1799" height="1799" fill="white"/>
</clipPath>
</defs>
</svg>
